<svg width="81" height="40" viewBox="0 0 81 40" fill="none" xmlns="http://www.w3.org/2000/svg">
<g clip-path="url(#clip0_533_3455)">
<path d="M17.164 17.7602H4.30266C4.26291 18.1825 4.2331 18.5568 4.21323 18.8864C4.19335 19.2159 4.18342 19.5124 4.18342 19.7757C4.18342 22.1721 4.78293 24.1213 5.98029 25.6234C7.17932 27.1255 8.73275 27.8757 10.6422 27.8757C11.6955 27.8757 12.618 27.6753 13.4079 27.2729C14.1979 26.8721 15.0144 26.1832 15.8573 25.2094L16.5877 25.9795C15.7712 27.1388 14.7759 28.0082 13.605 28.5878C12.4325 29.1675 11.0695 29.4573 9.51609 29.4573C6.79013 29.4573 4.53782 28.5912 2.75916 26.8589C0.983813 25.1249 0.0944824 22.9554 0.0944824 20.347C0.0944824 17.6608 1.02025 15.3555 2.87012 13.4328C4.72 11.5101 6.97562 10.5479 9.63698 10.5479C11.8363 10.5479 13.6398 11.1871 15.0491 12.464C16.4585 13.7408 17.1623 15.382 17.1623 17.3826V17.7586L17.164 17.7602ZM13.4113 16.5744C13.4378 16.3376 13.4643 16.1339 13.4907 15.9617C13.5172 15.7911 13.5305 15.6851 13.5305 15.6454C13.5305 14.3552 13.1645 13.3235 12.4342 12.5534C11.7038 11.7833 10.7449 11.3974 9.55915 11.3974C8.22929 11.3974 7.10976 11.8645 6.20056 12.8002C5.29135 13.7359 4.73821 14.9928 4.54114 16.5728H13.4113V16.5744Z" fill="black"/>
<path d="M26.3487 10.1934V25.938C26.3487 26.6766 26.5458 27.1966 26.9416 27.498C27.3374 27.8011 28.0545 27.9783 29.0945 28.0313V28.8809C28.2383 28.8146 27.4384 28.765 26.6948 28.7335C25.9512 28.7004 25.2424 28.6838 24.5717 28.6838C23.8993 28.6838 23.1988 28.7004 22.4668 28.7335C21.7364 28.7666 20.9564 28.8163 20.1267 28.8809V28.0313C21.1005 27.9916 21.7894 27.821 22.1902 27.5179C22.591 27.2148 22.793 26.7147 22.793 26.0158V25.3633V15.2495C22.793 14.0372 22.6407 13.2836 22.3393 12.9872C22.0362 12.6908 21.4433 12.5434 20.5606 12.5434H20.2443V11.7335C21.1005 11.654 22.0345 11.4868 23.0497 11.2301C24.0633 10.9734 25.1629 10.6273 26.3487 10.1934ZM24.156 0C24.7357 0 25.2325 0.203701 25.6482 0.61276C26.0639 1.02182 26.2709 1.51534 26.2709 2.09498C26.2709 2.67462 26.0672 3.16482 25.6581 3.56726C25.2491 3.96969 24.7489 4.17008 24.156 4.17008C23.5896 4.17008 23.106 3.96969 22.7036 3.56726C22.3012 3.16648 22.1008 2.67462 22.1008 2.09498C22.1008 1.50209 22.2979 1.00526 22.6937 0.602824C23.0895 0.200389 23.5764 0 24.156 0Z" fill="black"/>
<path d="M37.3917 22.9751C35.9955 22.475 34.9058 21.7082 34.1225 20.6731C33.3391 19.6397 32.9467 18.4506 32.9467 17.1075C32.9467 15.2245 33.6604 13.6595 35.0897 12.4158C36.5189 11.172 38.3257 10.5493 40.5134 10.5493C41.5137 10.5493 42.466 10.7066 43.3685 11.023C44.2711 11.3393 45.0843 11.8063 45.808 12.4257C46.7818 11.7417 47.5502 11.2763 48.11 11.0329C48.6698 10.7895 49.213 10.6669 49.7396 10.6669C50.4898 10.6669 51.0893 10.8325 51.5365 11.1604C51.9836 11.49 52.2089 11.9371 52.2089 12.5035C52.2089 12.8596 52.0863 13.1627 51.8429 13.4127C51.5994 13.6628 51.2997 13.7887 50.9436 13.7887C50.561 13.7887 50.1172 13.5386 49.6104 13.0384C49.1037 12.5383 48.6449 12.2882 48.2375 12.2882C48.0139 12.2882 47.7572 12.3512 47.4674 12.4754C47.1776 12.6012 46.8414 12.795 46.4605 13.0583C47.0004 13.7837 47.3863 14.471 47.6165 15.1218C47.8467 15.7743 47.9626 16.4749 47.9626 17.2251C47.9626 19.1876 47.3664 20.6698 46.1757 21.6701C44.9833 22.6704 43.1102 23.2699 40.5548 23.467H40.4356C37.1962 23.6905 35.5749 24.3099 35.5749 25.3235C35.5749 26.1664 37.2741 26.6069 40.6724 26.6467H40.8297C44.1486 26.6997 46.5218 27.2197 47.951 28.2068C49.3802 29.1938 50.094 30.782 50.094 32.9681C50.094 35.1276 49.2742 36.8334 47.6347 38.0838C45.9951 39.3342 43.7461 39.9602 40.8877 39.9602C38.3721 39.9602 36.2986 39.4269 34.6657 38.3604C33.0328 37.2938 32.2163 35.9573 32.2163 34.3493C32.2163 33.4268 32.5161 32.6269 33.1156 31.9496C33.7151 31.2706 34.4156 30.9327 35.2188 30.9327C35.5352 30.9327 35.8283 30.9956 36.0982 31.1198C36.3682 31.2457 36.6282 31.4395 36.8783 31.7028C36.2191 31.8734 35.7157 32.2228 35.3679 32.7495C35.0184 33.2761 34.8446 33.9551 34.8446 34.7848C34.8446 36.0352 35.4076 37.0437 36.5338 37.8072C37.6599 38.5707 39.1521 38.9532 41.0086 38.9532C43.0754 38.9532 44.6636 38.5475 45.7699 37.7377C46.8762 36.9278 47.4293 35.7652 47.4293 34.2516C47.4293 32.8422 46.9557 31.8452 46.0067 31.259C45.0578 30.6727 43.2212 30.3663 40.4952 30.3398C38.0988 30.3133 36.3566 30.0003 35.2702 29.4008C34.1838 28.8013 33.6406 27.8706 33.6406 26.6053C33.6406 25.6696 33.9569 24.8962 34.5895 24.2834C35.2221 23.6707 36.1562 23.2335 37.395 22.9701M40.2799 11.3542C39.0941 11.3542 38.1435 11.8742 37.4248 12.9142C36.706 13.9543 36.3483 15.3504 36.3483 17.1025C36.3483 18.8547 36.7077 20.2243 37.4248 21.2113C38.1419 22.1984 39.1339 22.6936 40.3975 22.6936C41.7008 22.6936 42.7094 22.1835 43.4199 21.1633C44.1304 20.1432 44.4864 18.6974 44.4864 16.8276C44.4864 15.155 44.1039 13.8251 43.3404 12.8364C42.5769 11.8494 41.5551 11.3542 40.2782 11.3542" fill="black"/>
<path d="M76.4229 15.4648H67.4435C66.4333 15.4648 65.6135 16.2846 65.6135 17.2948V26.2743C65.6135 27.2845 66.4333 28.1043 67.4435 28.1043H76.4229C77.4332 28.1043 78.253 27.2845 78.253 26.2743V17.2948C78.253 16.2846 77.4332 15.4648 76.4229 15.4648Z" fill="#E2348A"/>
<path d="M70.8303 22.1553H64.1131C63.2983 22.1553 62.6392 22.8161 62.6392 23.6292V30.3447C62.6392 31.1595 63.2999 31.8203 64.1148 31.8203H70.8303C71.6451 31.8203 72.3042 31.1595 72.3042 30.3464V23.6292C72.3042 22.8144 71.6434 22.1553 70.8303 22.1553Z" fill="#1A99D6"/>
<path d="M63.4837 10.2598H56.5909C55.8242 10.2598 55.2031 10.8808 55.2031 11.6476V18.5353C55.2031 19.3038 55.8258 19.9265 56.5926 19.9265H63.482C64.2471 19.9265 64.8682 19.3054 64.8682 18.5403V11.6476C64.8682 10.8825 64.2471 10.2614 63.482 10.2614" fill="#F0E532"/>
<path d="M79.2497 31.8223H73.5428C72.8588 31.8223 72.3057 32.3754 72.3057 33.0594V38.7647C72.3057 39.447 72.8588 40.0018 73.5428 40.0018H79.2497C79.932 40.0018 80.4852 39.4486 80.4852 38.7663V33.0594C80.4852 32.3771 79.932 31.8239 79.2497 31.8239" fill="black"/>
<path d="M0.833023 33.8341C0.708815 33.8341 0.594543 33.8126 0.49352 33.7678C0.392498 33.7248 0.304724 33.6635 0.230199 33.5873C0.155674 33.5111 0.0993665 33.4234 0.0596199 33.3257C0.0198733 33.2263 0 33.122 0 33.0093C0 32.8586 0.0347783 32.7212 0.104335 32.597C0.173891 32.4728 0.271602 32.3717 0.39581 32.2956C0.520018 32.2194 0.667412 32.1813 0.834679 32.1813C1.00195 32.1813 1.14768 32.2194 1.27024 32.2956C1.39279 32.3717 1.48719 32.4711 1.55509 32.5953C1.62299 32.7195 1.65611 32.852 1.65611 32.9944C1.65611 33.0193 1.65611 33.0425 1.6528 33.0623C1.65114 33.0839 1.64948 33.1021 1.64617 33.1153H0.359376C0.366 33.2081 0.390842 33.2892 0.437213 33.3588C0.483584 33.4283 0.541548 33.483 0.614416 33.5227C0.685629 33.5625 0.763466 33.5824 0.844616 33.5824C0.934045 33.5824 1.02016 33.5592 1.10131 33.5145C1.18246 33.4697 1.23711 33.4101 1.26527 33.3356L1.55343 33.4184C1.51865 33.4962 1.46566 33.5658 1.39444 33.6287C1.32323 33.6917 1.24043 33.7397 1.14437 33.7761C1.04832 33.8126 0.943982 33.8308 0.831367 33.8308L0.833023 33.8341ZM0.351095 32.8934H1.32157C1.31495 32.8023 1.29011 32.7228 1.24374 32.6533C1.19737 32.5837 1.1394 32.5291 1.06819 32.491C0.996978 32.4512 0.919141 32.433 0.833023 32.433C0.746905 32.433 0.67238 32.4529 0.601168 32.491C0.529955 32.5307 0.471991 32.5837 0.427276 32.6533C0.382561 32.7228 0.356063 32.8023 0.351095 32.8934ZM0.94067 31.9643L0.718751 31.8964L0.894299 31.5586H1.21724L0.94067 31.9643Z" fill="black"/>
<path d="M2.59181 33.8341C2.4676 33.8341 2.35333 33.8125 2.25231 33.7678C2.15129 33.7248 2.06351 33.6635 1.98899 33.5873C1.91446 33.5095 1.85816 33.4217 1.81841 33.3223C1.77866 33.223 1.75879 33.117 1.75879 33.006C1.75879 32.8553 1.79357 32.7178 1.86147 32.5953C1.92937 32.4711 2.02708 32.3717 2.15129 32.2972C2.2755 32.2227 2.42289 32.1846 2.59181 32.1846C2.76074 32.1846 2.89819 32.221 3.02074 32.2939C3.1433 32.3667 3.23273 32.4628 3.28903 32.5837L2.95947 32.688C2.92303 32.6201 2.87004 32.5671 2.80379 32.529C2.73755 32.491 2.66468 32.4727 2.58353 32.4727C2.4941 32.4727 2.4113 32.4959 2.33843 32.5406C2.26556 32.5854 2.20759 32.6483 2.16619 32.7278C2.12479 32.8073 2.10326 32.9 2.10326 33.0043C2.10326 33.1087 2.12479 33.1965 2.16785 33.2793C2.21091 33.3621 2.26887 33.425 2.34174 33.473C2.41461 33.521 2.49576 33.5442 2.58684 33.5442C2.6415 33.5442 2.69615 33.5343 2.74749 33.5144C2.80048 33.4946 2.8452 33.4681 2.88494 33.4349C2.92303 33.4018 2.95119 33.3637 2.96775 33.3223L3.29897 33.42C3.26419 33.4995 3.21285 33.5707 3.1433 33.632C3.0754 33.6933 2.99425 33.743 2.89985 33.7777C2.80711 33.8142 2.70277 33.8324 2.5885 33.8324L2.59181 33.8341Z" fill="black"/>
<path d="M4.29271 33.8341C4.16519 33.8341 4.05257 33.8125 3.95155 33.7678C3.85053 33.7248 3.76441 33.6635 3.69154 33.5873C3.61867 33.5095 3.56236 33.4217 3.52427 33.324C3.48453 33.2263 3.46631 33.1203 3.46631 33.0093C3.46631 32.8984 3.48618 32.7924 3.52427 32.693C3.56236 32.5936 3.61867 32.5059 3.69154 32.4297C3.76441 32.3535 3.85218 32.2939 3.9532 32.2508C4.05423 32.2078 4.1685 32.1846 4.29271 32.1846C4.41692 32.1846 4.53119 32.2061 4.63221 32.2508C4.73323 32.2955 4.82101 32.3535 4.89387 32.4297C4.96674 32.5059 5.02305 32.5936 5.06114 32.693C5.09923 32.7924 5.11911 32.8984 5.11911 33.0093C5.11911 33.1203 5.09923 33.2263 5.06114 33.324C5.02139 33.4217 4.96674 33.5111 4.89387 33.5873C4.82101 33.6651 4.73323 33.7248 4.63221 33.7678C4.53119 33.8109 4.41692 33.8341 4.29271 33.8341ZM3.81244 33.011C3.81244 33.112 3.83396 33.2031 3.87702 33.2842C3.92008 33.3654 3.97805 33.4283 4.04926 33.4747C4.12047 33.5211 4.20162 33.5442 4.29271 33.5442C4.38379 33.5442 4.46163 33.521 4.5345 33.473C4.60737 33.425 4.66533 33.3604 4.70839 33.2793C4.75145 33.1981 4.77298 33.107 4.77298 33.0077C4.77298 32.9083 4.75145 32.8155 4.70839 32.7344C4.66533 32.6533 4.60737 32.5887 4.5345 32.5423C4.46163 32.4943 4.38048 32.4711 4.29271 32.4711C4.20493 32.4711 4.12213 32.4959 4.04926 32.5439C3.97639 32.592 3.92008 32.6566 3.87702 32.7361C3.83396 32.8155 3.81244 32.9066 3.81244 33.011Z" fill="black"/>
<path d="M5.42383 31.5586H5.76167V33.3439C5.76167 33.4267 5.77327 33.478 5.79811 33.5012C5.82295 33.5244 5.85276 33.536 5.89085 33.536C5.93225 33.536 5.97034 33.5327 6.00678 33.5244C6.04321 33.5161 6.07468 33.5062 6.10118 33.4929L6.15086 33.7612C6.10118 33.7811 6.04321 33.7993 5.97531 33.8142C5.90741 33.8291 5.84779 33.8357 5.79314 33.8357C5.67887 33.8357 5.58778 33.8026 5.52319 33.738C5.45695 33.6734 5.42548 33.584 5.42548 33.4681V31.5603L5.42383 31.5586Z" fill="black"/>
<path d="M7.07497 33.8339C6.95076 33.8339 6.83649 33.8124 6.73546 33.7677C6.63444 33.7246 6.54667 33.6634 6.47214 33.5872C6.39762 33.511 6.34131 33.4232 6.30156 33.3255C6.26182 33.2262 6.24194 33.1218 6.24194 33.0092C6.24194 32.8585 6.27672 32.721 6.34628 32.5968C6.41583 32.4726 6.51355 32.3716 6.63775 32.2954C6.76196 32.2192 6.90936 32.1812 7.07662 32.1812C7.24389 32.1812 7.38963 32.2192 7.51218 32.2954C7.63473 32.3716 7.72913 32.471 7.79703 32.5952C7.86493 32.7194 7.89805 32.8519 7.89805 32.9943C7.89805 33.0191 7.89805 33.0423 7.89474 33.0622C7.89308 33.0837 7.89143 33.1019 7.88812 33.1152H6.59966C6.60629 33.2079 6.63113 33.2891 6.6775 33.3586C6.72387 33.4282 6.78184 33.4829 6.8547 33.5226C6.92592 33.5623 7.00375 33.5822 7.0849 33.5822C7.17433 33.5822 7.26045 33.559 7.3416 33.5143C7.42275 33.4696 7.4774 33.41 7.50555 33.3355L7.79372 33.4183C7.75894 33.4961 7.70594 33.5657 7.63473 33.6286C7.56352 33.6915 7.48071 33.7395 7.38466 33.776C7.2886 33.8124 7.18427 33.8306 7.07165 33.8306L7.07497 33.8339ZM6.59304 32.8933H7.56517C7.55855 32.8022 7.53371 32.7227 7.48734 32.6531C7.44097 32.5836 7.383 32.5289 7.31179 32.4908C7.24058 32.4511 7.16274 32.4329 7.07662 32.4329C6.9905 32.4329 6.91598 32.4528 6.84477 32.4908C6.77355 32.5306 6.71559 32.5836 6.67088 32.6531C6.62616 32.7227 6.59966 32.8022 6.59469 32.8933H6.59304Z" fill="black"/>
<path d="M8.93481 31.9312V31.5586H9.27266V31.9312H8.93481ZM8.93481 33.8043V32.1962H9.27266V33.8043H8.93481Z" fill="black"/>
<path d="M11.1192 33.8028H10.7814V32.9118C10.7814 32.7644 10.7565 32.6551 10.7085 32.5872C10.6605 32.5176 10.5893 32.4845 10.4949 32.4845C10.4286 32.4845 10.364 32.5011 10.2995 32.5325C10.2349 32.564 10.1769 32.6087 10.1256 32.6634C10.0742 32.718 10.0378 32.7826 10.0146 32.8555V33.8028H9.67676V32.2079H9.98479V32.5309C10.0262 32.4597 10.0792 32.3984 10.1454 32.3471C10.2117 32.2957 10.2879 32.256 10.3707 32.2262C10.4551 32.198 10.5446 32.1831 10.6373 32.1831C10.73 32.1831 10.8128 32.1997 10.8758 32.2344C10.9387 32.2692 10.9867 32.3156 11.0232 32.3769C11.0596 32.4365 11.0828 32.506 11.0977 32.5839C11.1109 32.6617 11.1176 32.7445 11.1176 32.8323V33.8044L11.1192 33.8028Z" fill="black"/>
<path d="M12.3961 33.7266C12.3679 33.7415 12.3315 33.7564 12.2884 33.773C12.2454 33.7896 12.1974 33.8045 12.1427 33.8161C12.0881 33.8277 12.0317 33.8343 11.9754 33.8343C11.9059 33.8343 11.8413 33.8227 11.7817 33.7979C11.7221 33.773 11.674 33.7349 11.6392 33.6803C11.6028 33.6256 11.5862 33.5561 11.5862 33.4699V32.4697H11.3743V32.208H11.5862V31.6797H11.9241V32.208H12.2752V32.4697H11.9241V33.3623C11.9274 33.4169 11.9456 33.4584 11.9771 33.4848C12.0086 33.5113 12.0483 33.5246 12.0947 33.5246C12.141 33.5246 12.1874 33.5163 12.2305 33.4998C12.2735 33.4832 12.305 33.4699 12.3265 33.46L12.3977 33.7283L12.3961 33.7266Z" fill="black"/>
<path d="M13.3186 33.8339C13.1944 33.8339 13.0801 33.8124 12.9791 33.7677C12.8781 33.7246 12.7903 33.6634 12.7158 33.5872C12.6413 33.511 12.585 33.4232 12.5452 33.3255C12.5055 33.2262 12.4856 33.1218 12.4856 33.0092C12.4856 32.8585 12.5204 32.721 12.5899 32.5968C12.6595 32.4726 12.7572 32.3716 12.8814 32.2954C13.0056 32.2192 13.153 32.1812 13.3203 32.1812C13.4875 32.1812 13.6333 32.2192 13.7558 32.2954C13.8784 32.3716 13.9728 32.471 14.0407 32.5952C14.1086 32.7194 14.1417 32.8519 14.1417 32.9943C14.1417 33.0191 14.1417 33.0423 14.1384 33.0622C14.1367 33.0837 14.1351 33.1019 14.1318 33.1152H12.8433C12.8499 33.2079 12.8748 33.2891 12.9212 33.3586C12.9675 33.4282 13.0255 33.4829 13.0984 33.5226C13.1696 33.5623 13.2474 33.5822 13.3286 33.5822C13.418 33.5822 13.5041 33.559 13.5853 33.5143C13.6664 33.4696 13.7211 33.41 13.7492 33.3355L14.0374 33.4183C14.0026 33.4961 13.9496 33.5657 13.8784 33.6286C13.8072 33.6915 13.7244 33.7395 13.6283 33.776C13.5323 33.8124 13.4279 33.8306 13.3153 33.8306L13.3186 33.8339ZM12.8367 32.8933H13.8088C13.8022 32.8022 13.7774 32.7227 13.731 32.6531C13.6846 32.5836 13.6267 32.5289 13.5554 32.4908C13.4842 32.4511 13.4064 32.4329 13.3203 32.4329C13.2342 32.4329 13.1596 32.4528 13.0884 32.4908C13.0172 32.5306 12.9592 32.5836 12.9145 32.6531C12.8698 32.7227 12.8433 32.8022 12.8383 32.8933H12.8367Z" fill="black"/>
<path d="M15.3224 32.4875C15.1916 32.4892 15.0757 32.519 14.973 32.577C14.872 32.6349 14.7991 32.7161 14.7561 32.8204V33.8041H14.4182V32.2093H14.7312V32.5571C14.7859 32.4461 14.8587 32.3584 14.9498 32.2905C15.0393 32.2242 15.1353 32.1878 15.2363 32.1812H15.2877C15.3009 32.1812 15.3125 32.1812 15.3224 32.1845V32.4892V32.4875Z" fill="black"/>
<path d="M17.0099 33.8028H16.672V32.9118C16.672 32.7644 16.6472 32.6551 16.5991 32.5872C16.5511 32.5176 16.4799 32.4845 16.3855 32.4845C16.3193 32.4845 16.2547 32.5011 16.1901 32.5325C16.1255 32.564 16.0675 32.6087 16.0162 32.6634C15.9648 32.718 15.9284 32.7826 15.9052 32.8555V33.8028H15.5674V32.2079H15.8754V32.5309C15.9168 32.4597 15.9698 32.3984 16.0361 32.3471C16.1023 32.2957 16.1785 32.256 16.2613 32.2262C16.3458 32.198 16.4352 32.1831 16.5279 32.1831C16.6207 32.1831 16.7035 32.1997 16.7664 32.2344C16.8293 32.2692 16.8774 32.3156 16.9138 32.3769C16.9502 32.4365 16.9734 32.506 16.9883 32.5839C17.0016 32.6617 17.0082 32.7445 17.0082 32.8323V33.8044L17.0099 33.8028Z" fill="black"/>
<path d="M17.2866 33.3371C17.2866 33.2361 17.3164 33.1467 17.3743 33.0705C17.4323 32.9943 17.5135 32.9347 17.6161 32.8933C17.7188 32.8519 17.8381 32.8303 17.9722 32.8303C18.0434 32.8303 18.1179 32.8353 18.1925 32.8453C18.267 32.8552 18.3332 32.8717 18.3912 32.8949V32.7939C18.3912 32.683 18.3581 32.5968 18.2902 32.5339C18.2223 32.471 18.1246 32.4395 17.9987 32.4395C17.9093 32.4395 17.8231 32.4561 17.7437 32.4875C17.6642 32.519 17.578 32.5637 17.4886 32.6217L17.3743 32.3948C17.4803 32.3236 17.588 32.2706 17.6956 32.2341C17.8033 32.1994 17.9159 32.1812 18.0351 32.1812C18.2504 32.1812 18.4193 32.2375 18.5436 32.3501C18.6678 32.4627 18.729 32.6217 18.729 32.8287V33.4216C18.729 33.4597 18.7357 33.4878 18.7489 33.5044C18.7622 33.5209 18.7853 33.5292 18.8185 33.5325V33.8025C18.787 33.8091 18.7605 33.8124 18.7357 33.8141C18.7108 33.8157 18.6909 33.8174 18.6744 33.8174C18.6032 33.8174 18.5485 33.8008 18.5121 33.7644C18.4757 33.7296 18.4541 33.6882 18.4475 33.6418L18.4376 33.5491C18.368 33.6385 18.2786 33.7097 18.1693 33.7578C18.06 33.8074 17.9507 33.8323 17.8397 33.8323C17.7287 33.8323 17.6377 33.8108 17.5532 33.766C17.4687 33.7213 17.4042 33.6634 17.3561 33.5872C17.3098 33.5127 17.2849 33.4282 17.2849 33.3338L17.2866 33.3371ZM18.31 33.4332C18.3349 33.4067 18.3548 33.3802 18.368 33.3553C18.3829 33.3288 18.3895 33.3057 18.3895 33.2858V33.1036C18.3316 33.0821 18.272 33.0655 18.2074 33.0539C18.1444 33.0423 18.0815 33.0374 18.0202 33.0374C17.8977 33.0374 17.7966 33.0622 17.7205 33.1102C17.6443 33.1583 17.6045 33.2245 17.6045 33.3106C17.6045 33.357 17.6178 33.4017 17.6426 33.4431C17.6675 33.4862 17.7056 33.5193 17.7536 33.5458C17.8016 33.5723 17.8612 33.5855 17.9341 33.5855C18.007 33.5855 18.0782 33.5723 18.1461 33.5441C18.214 33.516 18.2686 33.4795 18.3084 33.4348L18.31 33.4332Z" fill="black"/>
<path d="M20.024 33.7266C19.9959 33.7415 19.9594 33.7564 19.9164 33.773C19.8733 33.7896 19.8253 33.8045 19.7706 33.8161C19.716 33.8277 19.6597 33.8343 19.6034 33.8343C19.5338 33.8343 19.4692 33.8227 19.4096 33.7979C19.35 33.773 19.302 33.7349 19.2672 33.6803C19.2307 33.6256 19.2142 33.5561 19.2142 33.4699V32.4697H19.0022V32.208H19.2142V31.6797H19.552V32.208H19.9031V32.4697H19.552V33.3623C19.5553 33.4169 19.5736 33.4584 19.605 33.4848C19.6365 33.5113 19.6762 33.5246 19.7226 33.5246C19.769 33.5246 19.8153 33.5163 19.8584 33.4998C19.9015 33.4832 19.9329 33.4699 19.9545 33.46L20.0257 33.7283L20.024 33.7266Z" fill="black"/>
<path d="M20.2576 31.9312V31.5586H20.5954V31.9312H20.2576ZM20.2576 33.8043V32.1962H20.5954V33.8043H20.2576Z" fill="black"/>
<path d="M21.7231 33.8341C21.5956 33.8341 21.483 33.8125 21.382 33.7678C21.2809 33.7248 21.1948 33.6635 21.122 33.5873C21.0491 33.5095 20.9928 33.4217 20.9547 33.324C20.9149 33.2263 20.8967 33.1203 20.8967 33.0093C20.8967 32.8984 20.9166 32.7924 20.9547 32.693C20.9928 32.5936 21.0491 32.5059 21.122 32.4297C21.1948 32.3535 21.2826 32.2939 21.3836 32.2508C21.4846 32.2078 21.5989 32.1846 21.7231 32.1846C21.8473 32.1846 21.9616 32.2061 22.0626 32.2508C22.1637 32.2955 22.2514 32.3535 22.3243 32.4297C22.3972 32.5059 22.4535 32.5936 22.4916 32.693C22.5297 32.7924 22.5495 32.8984 22.5495 33.0093C22.5495 33.1203 22.5297 33.2263 22.4916 33.324C22.4518 33.4217 22.3972 33.5111 22.3243 33.5873C22.2514 33.6651 22.1637 33.7248 22.0626 33.7678C21.9616 33.8109 21.8473 33.8341 21.7231 33.8341ZM21.2429 33.011C21.2429 33.112 21.2644 33.2031 21.3074 33.2842C21.3505 33.3654 21.4085 33.4283 21.4797 33.4747C21.5509 33.5211 21.632 33.5442 21.7231 33.5442C21.8142 33.5442 21.8921 33.521 21.9649 33.473C22.0378 33.425 22.0958 33.3604 22.1388 33.2793C22.1819 33.1981 22.2034 33.107 22.2034 33.0077C22.2034 32.9083 22.1819 32.8155 22.1388 32.7344C22.0958 32.6533 22.0378 32.5887 21.9649 32.5423C21.8921 32.4943 21.8109 32.4711 21.7231 32.4711C21.6354 32.4711 21.5525 32.4959 21.4797 32.5439C21.4068 32.592 21.3505 32.6566 21.3074 32.7361C21.2644 32.8155 21.2429 32.9066 21.2429 33.011Z" fill="black"/>
<path d="M24.2935 33.8028H23.9557V32.9118C23.9557 32.7644 23.9309 32.6551 23.8828 32.5872C23.8348 32.5176 23.7636 32.4845 23.6692 32.4845C23.6029 32.4845 23.5384 32.5011 23.4738 32.5325C23.4092 32.564 23.3512 32.6087 23.2999 32.6634C23.2485 32.718 23.2121 32.7826 23.1889 32.8555V33.8028H22.8511V32.2079H23.1591V32.5309C23.2005 32.4597 23.2535 32.3984 23.3198 32.3471C23.386 32.2957 23.4622 32.256 23.545 32.2262C23.6294 32.198 23.7189 32.1831 23.8116 32.1831C23.9044 32.1831 23.9872 32.1997 24.0501 32.2344C24.113 32.2692 24.1611 32.3156 24.1975 32.3769C24.2339 32.4365 24.2571 32.506 24.272 32.5839C24.2853 32.6617 24.2919 32.7445 24.2919 32.8323V33.8044L24.2935 33.8028Z" fill="black"/>
<path d="M24.57 33.3371C24.57 33.2361 24.5998 33.1467 24.6578 33.0705C24.7158 32.9943 24.7969 32.9347 24.8996 32.8933C25.0023 32.8519 25.1215 32.8303 25.2556 32.8303C25.3269 32.8303 25.4014 32.8353 25.4759 32.8453C25.5504 32.8552 25.6167 32.8717 25.6746 32.8949V32.7939C25.6746 32.683 25.6415 32.5968 25.5736 32.5339C25.5057 32.471 25.408 32.4395 25.2821 32.4395C25.1927 32.4395 25.1066 32.4561 25.0271 32.4875C24.9476 32.519 24.8615 32.5637 24.7721 32.6217L24.6578 32.3948C24.7638 32.3236 24.8714 32.2706 24.9791 32.2341C25.0867 32.1994 25.1993 32.1812 25.3186 32.1812C25.5339 32.1812 25.7028 32.2375 25.827 32.3501C25.9512 32.4627 26.0125 32.6217 26.0125 32.8287V33.4216C26.0125 33.4597 26.0191 33.4878 26.0324 33.5044C26.0456 33.5209 26.0688 33.5292 26.1019 33.5325V33.8025C26.0704 33.8091 26.044 33.8124 26.0191 33.8141C25.9943 33.8157 25.9744 33.8174 25.9578 33.8174C25.8866 33.8174 25.832 33.8008 25.7955 33.7644C25.7591 33.7296 25.7376 33.6882 25.7309 33.6418L25.721 33.5491C25.6515 33.6385 25.562 33.7097 25.4527 33.7578C25.3434 33.8074 25.2341 33.8323 25.1232 33.8323C25.0122 33.8323 24.9211 33.8108 24.8366 33.766C24.7522 33.7213 24.6876 33.6634 24.6396 33.5872C24.5932 33.5127 24.5684 33.4282 24.5684 33.3338L24.57 33.3371ZM25.5935 33.4332C25.6183 33.4067 25.6382 33.3802 25.6515 33.3553C25.6664 33.3288 25.673 33.3057 25.673 33.2858V33.1036C25.615 33.0821 25.5554 33.0655 25.4908 33.0539C25.4279 33.0423 25.3649 33.0374 25.3037 33.0374C25.1811 33.0374 25.0801 33.0622 25.0039 33.1102C24.9277 33.1583 24.888 33.2245 24.888 33.3106C24.888 33.357 24.9012 33.4017 24.9261 33.4431C24.9509 33.4862 24.989 33.5193 25.037 33.5458C25.0851 33.5723 25.1447 33.5855 25.2176 33.5855C25.2904 33.5855 25.3616 33.5723 25.4295 33.5441C25.4974 33.516 25.5521 33.4795 25.5918 33.4348L25.5935 33.4332Z" fill="black"/>
<path d="M26.4233 31.5586H26.7612V33.3439C26.7612 33.4267 26.7728 33.478 26.7976 33.5012C26.8225 33.5244 26.8523 33.536 26.8904 33.536C26.9318 33.536 26.9699 33.5327 27.0063 33.5244C27.0427 33.5161 27.0742 33.5062 27.1007 33.4929L27.1504 33.7612C27.1007 33.7811 27.0427 33.7993 26.9748 33.8142C26.9069 33.8291 26.8473 33.8357 26.7927 33.8357C26.6784 33.8357 26.5873 33.8026 26.5227 33.738C26.4565 33.6734 26.425 33.584 26.425 33.4681V31.5603L26.4233 31.5586Z" fill="black"/>
<path d="M28.0745 33.8339C27.9503 33.8339 27.836 33.8124 27.735 33.7677C27.634 33.7246 27.5462 33.6634 27.4717 33.5872C27.3971 33.511 27.3408 33.4232 27.3011 33.3255C27.2613 33.2262 27.2415 33.1218 27.2415 33.0092C27.2415 32.8585 27.2762 32.721 27.3458 32.5968C27.4153 32.4726 27.5131 32.3716 27.6373 32.2954C27.7615 32.2192 27.9089 32.1812 28.0761 32.1812C28.2434 32.1812 28.3891 32.2192 28.5117 32.2954C28.6342 32.3716 28.7286 32.471 28.7965 32.5952C28.8644 32.7194 28.8976 32.8519 28.8976 32.9943C28.8976 33.0191 28.8976 33.0423 28.8943 33.0622C28.8926 33.0837 28.8909 33.1019 28.8876 33.1152H27.5992C27.6058 33.2079 27.6306 33.2891 27.677 33.3586C27.7234 33.4282 27.7813 33.4829 27.8542 33.5226C27.9254 33.5623 28.0033 33.5822 28.0844 33.5822C28.1738 33.5822 28.26 33.559 28.3411 33.5143C28.4223 33.4696 28.4769 33.41 28.5051 33.3355L28.7932 33.4183C28.7585 33.4961 28.7055 33.5657 28.6342 33.6286C28.563 33.6915 28.4802 33.7395 28.3842 33.776C28.2881 33.8124 28.1838 33.8306 28.0712 33.8306L28.0745 33.8339ZM27.5925 32.8933H28.5647C28.5581 32.8022 28.5332 32.7227 28.4868 32.6531C28.4405 32.5836 28.3825 32.5289 28.3113 32.4908C28.2401 32.4511 28.1623 32.4329 28.0761 32.4329C27.99 32.4329 27.9155 32.4528 27.8443 32.4908C27.7731 32.5306 27.7151 32.5836 27.6704 32.6531C27.6257 32.7227 27.5992 32.8022 27.5942 32.8933H27.5925Z" fill="black"/>
<path d="M0.0498047 37.0819C0.0498047 36.8599 0.0945196 36.6579 0.185606 36.4774C0.276692 36.2969 0.4009 36.1511 0.559886 36.0435C0.718873 35.9358 0.899389 35.8812 1.1064 35.8812C1.28526 35.8812 1.44756 35.9276 1.59164 36.0203C1.73572 36.113 1.84834 36.2273 1.92949 36.3648V34.9736H2.42135V37.6847C2.42135 37.741 2.43129 37.7807 2.45282 37.8056C2.47435 37.8288 2.50747 37.842 2.5555 37.8453V38.2395C2.46276 38.2544 2.39154 38.261 2.3402 38.261C2.24746 38.261 2.16962 38.2345 2.10504 38.1799C2.04045 38.1269 2.00733 38.0623 2.00401 37.9878L1.99905 37.8139C1.90962 37.9629 1.78872 38.0788 1.63636 38.16C1.484 38.2411 1.32666 38.2825 1.16271 38.2825C0.998755 38.2825 0.853018 38.2511 0.717217 38.1898C0.581416 38.1269 0.463832 38.0407 0.364465 37.9281C0.265099 37.8155 0.187262 37.688 0.13261 37.5423C0.0779585 37.3965 0.0498047 37.2442 0.0498047 37.0819ZM1.92949 37.4031V36.7987C1.89637 36.7043 1.84337 36.6198 1.7705 36.5453C1.69763 36.4708 1.61483 36.4111 1.52374 36.3664C1.43266 36.3217 1.34323 36.3002 1.2538 36.3002C1.14946 36.3002 1.05506 36.3217 0.968945 36.3664C0.884484 36.4111 0.811615 36.4691 0.750339 36.5436C0.689063 36.6182 0.642692 36.701 0.60957 36.7954C0.576447 36.8898 0.559886 36.9875 0.559886 37.0901C0.559886 37.1928 0.578104 37.2955 0.612882 37.3882C0.64766 37.481 0.700656 37.5638 0.7669 37.635C0.833144 37.7062 0.910981 37.7625 0.998755 37.8023C1.08653 37.842 1.18258 37.8619 1.28692 37.8619C1.35316 37.8619 1.41941 37.8503 1.48565 37.8271C1.55355 37.8039 1.61648 37.7708 1.67776 37.7294C1.73904 37.688 1.79038 37.64 1.83509 37.5837C1.87815 37.5274 1.90962 37.4677 1.92618 37.4031H1.92949Z" fill="black"/>
<path d="M4.10724 38.2826C3.92507 38.2826 3.76111 38.2511 3.61206 38.1865C3.46467 38.1236 3.33715 38.0358 3.2295 37.9249C3.12185 37.8139 3.03905 37.6864 2.98108 37.5423C2.92312 37.3982 2.89331 37.2459 2.89331 37.0819C2.89331 36.8633 2.94465 36.6646 3.04567 36.4824C3.1467 36.3002 3.28912 36.1545 3.47129 36.0435C3.65346 35.9326 3.8671 35.8779 4.11055 35.8779C4.354 35.8779 4.56598 35.9326 4.74318 36.0435C4.92039 36.1545 5.05784 36.3002 5.15721 36.4791C5.25658 36.658 5.30461 36.8534 5.30461 37.0587C5.30461 37.0935 5.30461 37.1283 5.29964 37.1581C5.29467 37.1879 5.29301 37.2144 5.29136 37.2359H3.41664C3.42492 37.3717 3.46301 37.4893 3.53091 37.592C3.59716 37.693 3.68327 37.7725 3.78761 37.8305C3.89194 37.8884 4.00456 37.9166 4.1238 37.9166C4.25463 37.9166 4.37884 37.8835 4.49808 37.8189C4.61566 37.7526 4.69516 37.6665 4.73822 37.5589L5.15887 37.6798C5.10753 37.7924 5.03135 37.8951 4.92867 37.9862C4.82599 38.0772 4.70344 38.1485 4.56432 38.2015C4.42356 38.2528 4.27119 38.2793 4.10724 38.2793V38.2826ZM3.40505 36.913H4.81937C4.81108 36.7822 4.77299 36.6646 4.70509 36.5636C4.63719 36.4625 4.55273 36.383 4.45005 36.3267C4.34737 36.2704 4.2331 36.2406 4.10724 36.2406C3.98137 36.2406 3.87207 36.2688 3.76939 36.3267C3.66671 36.383 3.58225 36.4625 3.51601 36.5636C3.44976 36.6646 3.41333 36.7805 3.40339 36.913H3.40505Z" fill="black"/>
<path d="M7.7408 38.2826C7.58347 38.2826 7.43773 38.2511 7.3069 38.1865C7.17606 38.122 7.06345 38.0358 6.96905 37.9249C6.87465 37.8139 6.80178 37.6881 6.75044 37.544C6.6991 37.3999 6.67261 37.2508 6.67261 37.0919C6.67261 36.9246 6.6991 36.7689 6.75376 36.6215C6.80675 36.4758 6.88293 36.3466 6.97899 36.234C7.07504 36.1214 7.18931 36.0353 7.3218 35.9723C7.45263 35.9094 7.59837 35.8779 7.76067 35.8779C7.94781 35.8779 8.11342 35.9226 8.25419 36.0104C8.39662 36.0982 8.51254 36.2141 8.60529 36.3565V35.9144H9.03919V38.175C9.03919 38.4002 8.98454 38.5923 8.87523 38.7496C8.76593 38.907 8.61854 39.0262 8.42974 39.1107C8.2426 39.1935 8.03062 39.2349 7.79379 39.2349C7.53378 39.2349 7.32015 39.1901 7.14957 39.1007C6.97899 39.0113 6.83491 38.8887 6.71567 38.7347L6.99389 38.4747C7.08332 38.6006 7.19925 38.695 7.34002 38.7612C7.48079 38.8275 7.63315 38.8589 7.79379 38.8589C7.92794 38.8589 8.05215 38.8357 8.16807 38.7877C8.28235 38.7397 8.37509 38.6668 8.44299 38.5675C8.51089 38.4681 8.54567 38.3422 8.54567 38.1915V37.8338C8.46286 37.9746 8.34693 38.0839 8.2012 38.1634C8.05546 38.2429 7.90144 38.2826 7.7408 38.2826ZM7.90144 37.8851C7.97597 37.8851 8.04718 37.8719 8.11673 37.847C8.18463 37.8222 8.24922 37.7874 8.30719 37.7444C8.36515 37.7013 8.41483 37.6516 8.45789 37.597C8.4993 37.5423 8.52911 37.4827 8.54732 37.4198V36.807C8.50923 36.706 8.45292 36.6166 8.38171 36.5404C8.3105 36.4642 8.22935 36.4046 8.13992 36.3632C8.05049 36.3218 7.9594 36.3002 7.86666 36.3002C7.75901 36.3002 7.66296 36.3234 7.5785 36.3698C7.49404 36.4162 7.42117 36.4774 7.36155 36.5536C7.30193 36.6298 7.25556 36.7159 7.22244 36.8103C7.18931 36.9064 7.17275 37.0041 7.17275 37.1051C7.17275 37.2128 7.19097 37.3121 7.22906 37.4049C7.26715 37.4976 7.31849 37.5804 7.38308 37.6533C7.44932 37.7261 7.5255 37.7825 7.61493 37.8239C7.70436 37.8636 7.80042 37.8851 7.90144 37.8851Z" fill="black"/>
<path d="M10.9436 36.3235C10.7532 36.3268 10.5842 36.3699 10.4352 36.4527C10.2878 36.5355 10.1818 36.6547 10.1205 36.8054V38.2363H9.62866V35.9144H10.0857V36.4196C10.1669 36.2589 10.2729 36.1297 10.4037 36.032C10.5346 35.9343 10.6737 35.8813 10.8194 35.873H10.8939C10.9138 35.873 10.9304 35.873 10.9453 35.878V36.3202L10.9436 36.3235Z" fill="black"/>
<path d="M11.0994 37.5606C11.0994 37.4132 11.1424 37.2841 11.2269 37.1731C11.3113 37.0622 11.4289 36.976 11.578 36.9164C11.727 36.8551 11.9009 36.8253 12.0963 36.8253C12.2007 36.8253 12.3067 36.8336 12.416 36.8485C12.5253 36.8634 12.6213 36.8866 12.7041 36.9197V36.7723C12.7041 36.61 12.6545 36.4842 12.5567 36.3931C12.459 36.302 12.3166 36.2573 12.1311 36.2573C12.0003 36.2573 11.8761 36.2805 11.7602 36.3268C11.6442 36.3732 11.52 36.4378 11.3892 36.5206L11.2236 36.1894C11.3792 36.085 11.5349 36.0072 11.6906 35.9575C11.8479 35.9062 12.0119 35.8813 12.1858 35.8813C12.4988 35.8813 12.7455 35.9625 12.9261 36.1265C13.1066 36.2904 13.196 36.5223 13.196 36.8237V37.6865C13.196 37.7428 13.2059 37.7826 13.2258 37.8057C13.2457 37.8289 13.2788 37.8422 13.3268 37.8455V38.2396C13.2821 38.2479 13.2424 38.2546 13.2059 38.2579C13.1695 38.2612 13.1397 38.2628 13.1165 38.2628C13.0122 38.2628 12.9327 38.238 12.8797 38.1867C12.8267 38.1353 12.7952 38.0757 12.7853 38.0078L12.772 37.8736C12.671 38.0045 12.5402 38.1055 12.3828 38.1784C12.2255 38.2496 12.0649 38.286 11.9042 38.286C11.7436 38.286 11.6111 38.2546 11.4886 38.19C11.366 38.127 11.2716 38.0393 11.202 37.93C11.1341 37.8207 11.0994 37.6981 11.0994 37.5623V37.5606ZM12.5899 37.7014C12.6263 37.6633 12.6545 37.6252 12.6743 37.5871C12.6942 37.549 12.7058 37.5159 12.7058 37.4861V37.2228C12.623 37.1913 12.5336 37.1665 12.4425 37.1499C12.3497 37.1334 12.2586 37.1251 12.1692 37.1251C11.9904 37.1251 11.8446 37.1599 11.7337 37.2311C11.6227 37.3023 11.5664 37.3983 11.5664 37.5209C11.5664 37.5888 11.5846 37.6534 11.6227 37.7147C11.6608 37.7759 11.7138 37.8256 11.7833 37.8637C11.8529 37.9018 11.9407 37.9217 12.045 37.9217C12.1493 37.9217 12.2553 37.9018 12.353 37.8604C12.4508 37.819 12.5302 37.766 12.5899 37.7014Z" fill="black"/>
<path d="M15.1221 38.2829C14.935 38.2829 14.7694 38.2382 14.6253 38.1504C14.4829 38.061 14.3686 37.9467 14.2858 37.8043V39.1904H13.7939V35.9163H14.2278V36.337C14.3173 36.1979 14.4332 36.0869 14.5773 36.0041C14.7197 35.9213 14.8804 35.8799 15.0559 35.8799C15.2165 35.8799 15.3639 35.9113 15.4981 35.9759C15.6322 36.0405 15.7482 36.1283 15.8475 36.2393C15.9452 36.3519 16.0231 36.4794 16.0777 36.6218C16.1324 36.7659 16.1605 36.9166 16.1605 37.0756C16.1605 37.2975 16.1158 37.4996 16.028 37.6834C15.9403 37.8672 15.8177 38.0113 15.662 38.1206C15.5047 38.2282 15.3258 38.2829 15.1221 38.2829ZM14.9615 37.8622C15.0658 37.8622 15.1602 37.8407 15.2464 37.796C15.3308 37.7513 15.4037 37.6933 15.465 37.6188C15.5262 37.5459 15.5726 37.4615 15.6057 37.3671C15.6389 37.2727 15.6554 37.1766 15.6554 37.0756C15.6554 36.9696 15.6372 36.8702 15.6024 36.7758C15.566 36.6814 15.5146 36.5986 15.4484 36.5291C15.3822 36.4595 15.3043 36.4032 15.2165 36.3618C15.1288 36.3204 15.0327 36.3005 14.9284 36.3005C14.8654 36.3005 14.8009 36.3121 14.7313 36.3353C14.6634 36.3585 14.5988 36.3916 14.5392 36.4314C14.4796 36.4728 14.4266 36.5208 14.3819 36.5771C14.3371 36.6334 14.3057 36.6914 14.2875 36.7527V37.3604C14.3289 37.4548 14.3835 37.5393 14.4531 37.6138C14.521 37.6884 14.6005 37.748 14.6899 37.7943C14.7793 37.8407 14.8704 37.8622 14.9632 37.8622H14.9615Z" fill="black"/>
<path d="M18.7008 38.2381H18.209V36.943C18.209 36.7344 18.1709 36.577 18.093 36.4744C18.0152 36.3717 17.9059 36.3203 17.7668 36.3203C17.6807 36.3203 17.5912 36.3435 17.4985 36.3916C17.4058 36.4379 17.3246 36.5025 17.2517 36.5837C17.1805 36.6648 17.1275 36.7576 17.0944 36.8635V38.2414H16.6025V34.9756H17.0944V36.3882C17.1838 36.2309 17.3064 36.1084 17.4604 36.0189C17.6144 35.9295 17.7833 35.8831 17.9622 35.8831C18.1079 35.8831 18.2288 35.908 18.3249 35.9593C18.4209 36.009 18.4955 36.0786 18.5501 36.1663C18.6048 36.2541 18.6445 36.3535 18.6661 36.4677C18.6892 36.582 18.6992 36.7013 18.6992 36.8288V38.2431L18.7008 38.2381Z" fill="black"/>
<path d="M19.2739 35.5137V34.9722H19.7658V35.5137H19.2739ZM19.2739 38.238V35.8979H19.7658V38.238H19.2739Z" fill="black"/>
<path d="M21.1884 38.2827C20.9913 38.2827 20.8058 38.2512 20.6286 38.1867C20.4531 38.1221 20.3024 38.026 20.1765 37.8985L20.3603 37.5673C20.4945 37.6865 20.6286 37.7726 20.7644 37.8273C20.9002 37.8803 21.0344 37.9084 21.1685 37.9084C21.3027 37.9084 21.4169 37.8836 21.5047 37.8322C21.5908 37.7809 21.6339 37.7064 21.6339 37.607C21.6339 37.5325 21.6107 37.4778 21.566 37.4431C21.5213 37.4083 21.4567 37.3768 21.3706 37.3503C21.2861 37.3238 21.1834 37.294 21.0642 37.2609C20.8969 37.2112 20.7562 37.1582 20.6435 37.1036C20.5309 37.0489 20.4448 36.981 20.3885 36.9015C20.3322 36.822 20.304 36.7193 20.304 36.5951C20.304 36.4444 20.3421 36.3152 20.42 36.2093C20.4978 36.1033 20.6054 36.0221 20.7446 35.9658C20.8837 35.9095 21.0443 35.8813 21.2248 35.8813C21.3954 35.8813 21.5527 35.9078 21.6968 35.9592C21.8409 36.0122 21.9684 36.0933 22.0794 36.2026L21.8691 36.5289C21.7647 36.4328 21.6587 36.3633 21.5494 36.3186C21.4401 36.2738 21.3242 36.2507 21.1983 36.2507C21.1271 36.2507 21.0576 36.2589 20.993 36.2755C20.9284 36.2921 20.8721 36.3219 20.829 36.3633C20.786 36.4063 20.7644 36.466 20.7644 36.5421C20.7644 36.6034 20.7826 36.6547 20.8174 36.6928C20.8539 36.7309 20.9069 36.7641 20.9781 36.7905C21.0493 36.817 21.1371 36.8469 21.2414 36.8783C21.4236 36.9313 21.5776 36.9843 21.7068 37.0357C21.8343 37.087 21.9336 37.1532 22.0049 37.2344C22.0744 37.3155 22.1092 37.4265 22.1092 37.5689C22.1092 37.7925 22.0247 37.968 21.8558 38.0939C21.6869 38.2198 21.4633 38.2827 21.1818 38.2827H21.1884Z" fill="black"/>
<path d="M26.1318 38.2381H25.64V36.943C25.64 36.7277 25.6035 36.5704 25.5323 36.4694C25.4611 36.3683 25.3568 36.3186 25.2193 36.3186C25.0819 36.3186 24.9543 36.37 24.8368 36.471C24.7192 36.572 24.6364 36.7045 24.5883 36.8668V38.2381H24.0965V36.943C24.0965 36.7277 24.06 36.5704 23.9888 36.4694C23.9176 36.3683 23.8149 36.3186 23.6808 36.3186C23.5466 36.3186 23.4158 36.3683 23.2982 36.4677C23.1806 36.5671 23.0962 36.6979 23.0448 36.8585V38.2364H22.553V35.9146H23.0001V36.3832C23.0929 36.2209 23.2138 36.0967 23.3645 36.009C23.5152 35.9212 23.6874 35.8781 23.8812 35.8781C24.0749 35.8781 24.2273 35.9278 24.3399 36.0288C24.4525 36.1298 24.5204 36.2557 24.5486 36.4048C24.6496 36.2342 24.7738 36.1034 24.9229 36.0123C25.0719 35.9212 25.2392 35.8765 25.4313 35.8765C25.5688 35.8765 25.683 35.9013 25.7758 35.9526C25.8685 36.0023 25.9397 36.0719 25.9911 36.1597C26.0424 36.2474 26.0788 36.3468 26.1004 36.4611C26.1236 36.5753 26.1335 36.6946 26.1335 36.8221V38.2364L26.1318 38.2381Z" fill="black"/>
<path d="M27.7615 38.2826C27.5794 38.2826 27.4154 38.2511 27.2664 38.1865C27.119 38.1236 26.9914 38.0358 26.8838 37.9249C26.7762 37.8139 26.6933 37.6864 26.6354 37.5423C26.5774 37.3982 26.5476 37.2459 26.5476 37.0819C26.5476 36.8633 26.5989 36.6646 26.7 36.4824C26.801 36.3002 26.9434 36.1545 27.1256 36.0435C27.3078 35.9326 27.5214 35.8779 27.7648 35.8779C28.0083 35.8779 28.2203 35.9326 28.3975 36.0435C28.5747 36.1545 28.7121 36.3002 28.8115 36.4791C28.9109 36.658 28.9589 36.8534 28.9589 37.0587C28.9589 37.0935 28.9589 37.1283 28.9539 37.1581C28.949 37.1879 28.9473 37.2144 28.9457 37.2359H27.0709C27.0792 37.3717 27.1173 37.4893 27.1852 37.592C27.2515 37.693 27.3376 37.7725 27.4419 37.8305C27.5462 37.8884 27.6589 37.9166 27.7781 37.9166C27.9089 37.9166 28.0331 37.8835 28.1524 37.8189C28.27 37.7526 28.3495 37.6665 28.3925 37.5589L28.8132 37.6798C28.7618 37.7924 28.6856 37.8951 28.583 37.9862C28.4803 38.0772 28.3577 38.1485 28.2186 38.2015C28.0779 38.2528 27.9255 38.2793 27.7615 38.2793V38.2826ZM27.0593 36.913H28.4737C28.4654 36.7822 28.4273 36.6646 28.3594 36.5636C28.2915 36.4625 28.207 36.383 28.1043 36.3267C28.0017 36.2704 27.8874 36.2406 27.7615 36.2406C27.6357 36.2406 27.5264 36.2688 27.4237 36.3267C27.321 36.383 27.2365 36.4625 27.1703 36.5636C27.1041 36.6646 27.0676 36.7805 27.0577 36.913H27.0593Z" fill="black"/>
</g>
<defs>
<clipPath id="clip0_533_3455">
<rect width="80.4836" height="40" fill="white"/>
</clipPath>
</defs>
</svg>
